# xmcd
#
# Track frame offsets:
#	150
#	18030
#	34749
#	61371
#	89389
#	109707
#	122355
#	168563
#	192394
#	217163
#
# Disc length: 3198 seconds
#
# Revision: 1
# Processed by: cddbd v1.5.1PL2 Copyright (c) Steve Scherf et al.
# Submitted via: EasyCDDAExtractor 9.0.0.1
#
DISCID=830c7c0a
DTITLE=Saxon - Colos-Saal Aschaffenburg 12-12-05 Disc 2
DYEAR=2005
DGENRE=Hard Rock
TTITLE0=To Hell And Back Again
TTITLE1=Red Line
TTITLE2=Dallas 1 PM
TTITLE3=Denim and Leather
TTITLE4=20 000 Ft
TTITLE5=And The Bands Played On
TTITLE6=Wheels Of Steel
TTITLE7=747 (Strangers In The Night)
TTITLE8=Princess Of The Night
TTITLE9=Heavy Metal Thunder
EXTD=
EXTT0=
EXTT1=
EXTT2=
EXTT3=
EXTT4=
EXTT5=
EXTT6=
EXTT7=
EXTT8=
EXTT9=
PLAYORDER=
